<svg width="318" height="190" viewBox="0 0 318 190" fill="none" xmlns="http://www.w3.org/2000/svg">
<rect x="0.5" y="0.5" width="317" height="189" fill="white" stroke="black"/>
<path d="M162.557 73.7284L166.195 66.9611C168.458 62.6107 175.087 65.3498 173.632 70.0225L171.368 77.3537C170.398 80.4151 173.309 83.3154 176.381 82.3486L183.737 80.0929C188.426 78.6427 191.174 85.2489 186.809 87.5046L179.937 91.13C177.108 92.6607 177.108 96.7694 179.937 98.2195L186.809 101.845C191.174 104.101 188.426 110.707 183.737 109.257L176.381 107.001C173.309 106.034 170.398 108.934 171.368 111.996L173.632 119.327C175.087 124 168.458 126.739 166.195 122.388L162.557 115.541C161.021 112.721 156.898 112.721 155.443 115.541L151.805 122.388C149.542 126.739 142.913 124 144.368 119.327L146.632 111.996C147.602 108.934 144.691 106.034 141.619 107.001L134.263 109.257C129.574 110.707 126.826 104.101 131.191 101.845L138.063 98.2195C140.892 96.6888 140.892 92.5801 138.063 91.13L131.191 87.5046C126.826 85.2489 129.574 78.6427 134.263 80.0929L141.619 82.3486C144.691 83.3154 147.602 80.4151 146.632 77.3537L144.368 70.0225C142.913 65.3498 149.542 62.6107 151.805 66.9611L155.443 73.8089C156.979 76.6286 161.102 76.6286 162.557 73.7284Z" fill="black"/>
</svg>
