<svg width="40" height="40" viewBox="0 0 40 40" fill="none" xmlns="http://www.w3.org/2000/svg">
<rect x="0.5" y="0.5" width="39" height="39" stroke="white"/>
<g clip-path="url(#clip0)">
<path d="M8.57096 15.0775L8.57096 15.0775C8.51429 16.3432 8.5 16.7442 8.5 20C8.5 23.2557 8.51429 23.6568 8.57096 24.9272L8.57096 15.0775ZM8.57096 15.0775C8.62594 13.8451 8.82109 13.0277 9.09454 12.3217C9.38138 11.594 9.75501 10.9823 10.3686 10.3686C10.9844 9.7529 11.5915 9.37605 12.3196 9.09535L12.3204 9.09504M8.57096 15.0775L12.3204 9.09504M12.3204 9.09504C13.0268 8.82129 13.8445 8.62596 15.0727 8.57096L12.3204 9.09504ZM20 8.5C16.7443 8.5 16.3432 8.51429 15.0728 8.57096L20 8.5ZM20 8.5C23.2548 8.5 23.6574 8.51427 24.933 8.56624M20 8.5L24.933 8.56624M24.933 8.56624C26.1648 8.62127 26.982 8.8164 27.6878 9.08977C28.4156 9.37662 29.0273 9.75025 29.6409 10.3639C30.2566 10.9796 30.6334 11.5867 30.9141 12.3147C31.1883 13.0266 31.3836 13.8447 31.4386 15.0727L24.933 8.56624ZM30.915 27.6831C31.1884 26.977 31.3836 26.1597 31.4386 24.9273C31.4952 23.6569 31.5095 23.2605 31.5095 20C31.5095 16.7443 31.4952 16.3432 31.4386 15.0728L30.915 27.6831ZM30.915 27.6831C30.6281 28.4108 30.2545 29.0225 29.6409 29.6361C29.0252 30.2518 28.4181 30.6286 27.6901 30.9093C26.9781 31.1835 26.1601 31.3788 24.9321 31.4338L30.915 27.6831ZM20.0048 31.5048C23.2605 31.5048 23.6616 31.4905 24.932 31.4338L20.0048 31.5048ZM20.0048 31.5048C16.7442 31.5048 16.3479 31.4905 15.0775 31.4338M20.0048 31.5048L15.0775 31.4338M15.0775 31.4338C13.8451 31.3788 13.0278 31.1837 12.3217 30.9102M15.0775 31.4338L12.3217 30.9102M12.3217 30.9102C11.594 30.6234 10.9823 30.2498 10.3686 29.6361C9.7529 29.0204 9.37605 28.4132 9.09535 27.6852C8.82121 26.9732 8.62595 26.1552 8.57096 24.9273L12.3217 30.9102Z" stroke="white"/>
<path d="M14.3357 20.0048C14.3357 16.8751 16.8746 14.3404 20 14.3404C23.13 14.3404 25.6644 16.8748 25.6644 20.0048C25.6644 23.1345 23.1255 25.6691 20 25.6691C16.8703 25.6691 14.3357 23.1302 14.3357 20.0048Z" stroke="white"/>
<path d="M27.3461 13.5927C27.3461 14.1121 26.9268 14.5313 26.4074 14.5313C25.888 14.5313 25.4688 14.1121 25.4688 13.5927C25.4688 13.0732 25.888 12.654 26.4074 12.654C26.9268 12.654 27.3461 13.0732 27.3461 13.5927Z" stroke="white"/>
</g>
<defs>
<clipPath id="clip0">
<rect width="24" height="24" fill="white" transform="translate(8 8)"/>
</clipPath>
</defs>
</svg>
