<svg width="40" height="30" viewBox="0 0 40 30" fill="none" xmlns="http://www.w3.org/2000/svg">
<path d="M15.8666 4.64602C29.0799 4.68584 15.9599 13.0487 29.0666 13.0487C34.9999 13.0487 39.9733 10.3142 39.9999 9.66372V5.0177C39.9733 5.66814 34.9999 8.40265 29.0666 8.40265C15.9733 8.40265 29.0533 0.0663717 15.9199 0C15.8933 0 15.8799 0 15.8533 0C15.8266 0 15.7866 0 15.7599 0C8.74661 0.0530973 3.97327 3.30531 3.97327 3.30531C-3.61339 8.4823 1.89327 13.8584 2.45327 14.1637C2.45327 14.1637 -1.64006 19.1814 2.41327 22.6062C3.42661 23.469 4.86661 23.9469 6.39994 23.9469C9.27994 23.9469 11.6266 21.5973 15.8666 21.5841C29.0666 21.6372 15.9599 29.9867 29.0533 29.9867C34.9866 29.9867 39.9599 27.2522 39.9866 26.6018V21.9558C39.9599 22.6062 34.9866 25.3407 29.0533 25.3407C15.9199 25.3407 29.1466 16.9381 15.7466 16.9381C10.9999 16.9779 7.29327 18.8628 7.29327 18.8628C6.39994 19.2743 5.41327 19.2876 4.82661 18.8363C4.05327 18.2257 4.26661 17.031 5.30661 16.1681C6.55994 14.9867 10.8666 13.115 15.9066 13.115C29.0399 13.1814 15.9733 21.5177 29.0533 21.5177C34.9866 21.5177 39.9599 18.7832 39.9866 18.1327V13.4867C39.9599 14.1372 34.9866 16.8717 29.0533 16.8717C15.9599 16.8717 29.0399 8.5354 15.9066 8.46903C15.8933 8.46903 15.8799 8.46903 15.8666 8.46903C15.8266 8.46903 15.7866 8.46903 15.7599 8.46903C11.0133 8.50885 7.30661 10.3938 7.30661 10.3938C6.41327 10.8053 5.42661 10.8186 4.83994 10.3673C4.06661 9.75664 4.27994 8.56195 5.31994 7.69911C6.55994 6.53097 10.8399 4.65929 15.8666 4.64602Z" fill="white"/>
</svg>
